REM GENRE Alternative
REM DATE 1987
REM DISCID 350CAA15
REM COMMENT "ExactAudioCopy v0.99pb4"
CATALOG 0000000000000
PERFORMER "Pixies"
TITLE "Surfer Rosa & Come on Pilgrim"
FILE "Range.wav" WAVE
  TRACK 01 AUDIO
    TITLE "Bone Machine"
    PERFORMER "Pixies"
    ISRC 000000000000
    INDEX 00 00:00:00
    INDEX 01 00:00:32
  TRACK 02 AUDIO
    TITLE "Break My Body"
    PERFORMER "Pixies"
    ISRC 000000000000
    INDEX 01 03:03:42
  TRACK 03 AUDIO
    TITLE "Something Against You"
    PERFORMER "Pixies"
    ISRC 000000000000
    INDEX 00 05:08:42
    INDEX 01 05:09:12
  TRACK 04 AUDIO
    TITLE "Broken Face"
    PERFORMER "Pixies"
    ISRC 000000000000
    INDEX 01 06:56:67
  TRACK 05 AUDIO
    TITLE "Gigantic"
    PERFORMER "Pixies"
    ISRC 000000000000
    INDEX 01 08:27:00
  TRACK 06 AUDIO
    TITLE "River Euphrates"
    PERFORMER "Pixies"
    ISRC 000000000000
    INDEX 01 12:21:70
  TRACK 07 AUDIO
    TITLE "Where Is My Mind?"
    PERFORMER "Pixies"
    ISRC 000000000000
    INDEX 01 14:53:60
  TRACK 08 AUDIO
    TITLE "Cactus"
    PERFORMER "Pixies"
    ISRC 000000000000
    INDEX 01 18:47:15
  TRACK 09 AUDIO
    TITLE "Tony's Theme"
    PERFORMER "Pixies"
    ISRC 000000000000
    INDEX 01 21:03:70
  TRACK 10 AUDIO
    TITLE "Oh My Golly!"
    PERFORMER "Pixies"
    ISRC 000000000000
    INDEX 01 22:56:15
  TRACK 11 AUDIO
    TITLE "Vamos"
    PERFORMER "Pixies"
    ISRC 000000000000
    INDEX 01 24:43:32
    INDEX 02 25:28:27
  TRACK 12 AUDIO
    TITLE "I'm Amazed"
    PERFORMER "Pixies"
    ISRC 000000000000
    INDEX 01 29:49:20
  TRACK 13 AUDIO
    TITLE "Brick is Red"
    PERFORMER "Pixies"
    ISRC 000000000000
    INDEX 01 31:31:27
  TRACK 14 AUDIO
    TITLE "Caribou"
    PERFORMER "Pixies"
    ISRC 000000000000
    INDEX 01 33:32:20
  TRACK 15 AUDIO
    TITLE "Vamos"
    PERFORMER "Pixies"
    ISRC 000000000000
    INDEX 01 36:46:45
  TRACK 16 AUDIO
    TITLE "Isla de Encanta"
    PERFORMER "Pixies"
    ISRC 000000000000
    INDEX 01 39:40:22
  TRACK 17 AUDIO
    TITLE "Ed is Dead"
    PERFORMER "Pixies"
    ISRC 000000000000
    INDEX 01 41:21:47
  TRACK 18 AUDIO
    TITLE "The Holyday Song"
    PERFORMER "Pixies"
    ISRC 000000000000
    INDEX 01 43:51:47
  TRACK 19 AUDIO
    TITLE "Nimrod's Son"
    PERFORMER "Pixies"
    ISRC 000000000000
    INDEX 01 46:06:10
  TRACK 20 AUDIO
    TITLE "I've Been Tired"
    PERFORMER "Pixies"
    ISRC 000000000000
    INDEX 01 48:23:25
  TRACK 21 AUDIO
    TITLE "Levitate Me"
    PERFORMER "Pixies"
    ISRC 000000000000
    INDEX 01 51:24:07
